PathFileType	4	(X/Y/Z)	/Users/itak/Documents/Research/Walk-IL/dataset/trc/00488_00167.trc
DataRate	CameraRate	NumFrames	NumMarkers	Units	OrigDataRate	OrigDataStartFrame	OrigNumFrames
100.000000	100.000000	4	53	mm	100.000000	204	546
Frame#	Time	RPSI			LPSI			L3			STRN			T10			C7			CLAV			RBAK			LBAK			LSHO			LUPA			LAEL			LAOL			LWTS			LWPS			LFRA			LIFD			LHPS			LHTS			RSHO			RUPA			RAEL			RAOL			RWTS			RWPS			RFRA			RIFD			RHTS			RHPS			RBHD			LFHD			RFHD			LBHD			LHIP			RHIP			RASI			LASI			LKNE			LTHI			LANK			LTIP			LTOE			LMT1			LMT5			LHEE			RKNE			RTHI			RANK			RTIP			RTOE			RMT1			RMT5			RHEE			
		X1	Y1	Z1	X2	Y2	Z2	X3	Y3	Z3	X4	Y4	Z4	X5	Y5	Z5	X6	Y6	Z6	X7	Y7	Z7	X8	Y8	Z8	X9	Y9	Z9	X10	Y10	Z10	X11	Y11	Z11	X12	Y12	Z12	X13	Y13	Z13	X14	Y14	Z14	X15	Y15	Z15	X16	Y16	Z16	X17	Y17	Z17	X18	Y18	Z18	X19	Y19	Z19	X20	Y20	Z20	X21	Y21	Z21	X22	Y22	Z22	X23	Y23	Z23	X24	Y24	Z24	X25	Y25	Z25	X26	Y26	Z26	X27	Y27	Z27	X28	Y28	Z28	X29	Y29	Z29	X30	Y30	Z30	X31	Y31	Z31	X32	Y32	Z32	X33	Y33	Z33	X34	Y34	Z34	X35	Y35	Z35	X36	Y36	Z36	X37	Y37	Z37	X38	Y38	Z38	X39	Y39	Z39	X40	Y40	Z40	X41	Y41	Z41	X42	Y42	Z42	X43	Y43	Z43	X44	Y44	Z44	X45	Y45	Z45	X46	Y46	Z46	X47	Y47	Z47	X48	Y48	Z48	X49	Y49	Z49	X50	Y50	Z50	X51	Y51	Z51	X52	Y52	Z52	X53	Y53	Z53	

205	2.04	-855.1009521484375	921.3563842773438	121.6849822998047	-786.104248046875	928.6754760742188	-3.316751718521118	-811.7029418945312	1024.548950195312	70.68222045898438	-569.6609497070312	1219.545654296875	200.4254150390625	-820.5792236328125	1148.315551757812	57.73900985717773	-769.6209106445312	1418.472534179688	106.1055755615234	-601.5562133789062	1332.122680664062	181.3554992675781	-869.5575561523438	1296.131103515625	152.0347442626953	-750.8569946289062	1372.85546875	1.541792154312134	-622.9189453125	1392.564697265625	-18.00440979003906	-588.2464599609375	1275.407104492188	-111.4799194335938	-561.5020751953125	1061.644775390625	-142.5977935791016	-661.4436645507812	1049.001098632812	-116.927131652832	-520.6146240234375	849.3148193359375	-86.14591979980469	-537.8642578125	843.06201171875	-158.1114807128906	-543.1275634765625	973.184814453125	-149.8165588378906	-528.8904418945312	687.9932861328125	-107.5854873657227	-535.2371826171875	764.9698486328125	-162.1319427490234	-508.2248840332031	762.1446533203125	-95.22214508056641	-789.69384765625	1381.3525390625	276.32373046875	-847.1105346679688	1321.638916015625	327.8299865722656	-908.7412719726562	1041.873413085938	365.3209838867188	-928.8692016601562	1032.347900390625	300.4290466308594	-833.8485107421875	818.6129760742188	368.3279724121094	-922.6118774414062	819.2666625976562	382.3012084960938	-920.6155395507812	984.515625	372.2281188964844	-866.734130859375	665.1837158203125	358.9183349609375	-845.7472534179688	719.929931640625	375.1394958496094	-923.6744995117188	729.6495971679688	378.9106140136719	-690.0685424804688	1619.86376953125	238.7712097167969	-535.3623657226562	1614.929077148438	101.0758895874023	-552.7084350585938	1619.950561523438	230.7159729003906	-682.9768676757812	1619.28955078125	61.1330451965332	-615.3687133789062	828.0097045898438	-50.51279830932617	-795.2254028320312	830.4765014648438	307.7140502929688	-683.2655639648438	885.5655517578125	289.8687133789062	-560.6248779296875	863.1155395507812	65.758544921875	-685.5742797851562	413.5157165527344	-52.93990707397461	-624.6461791992188	561.7092895507812	-34.86227035522461	-971.4910278320312	126.2623443603516	-206.4109649658203	-772.0825805664062	294.3417358398438	-117.1400299072266	-878.2826538085938	41.59436798095703	-18.28296661376953	-936.8678588867188	64.73244476318359	-42.61149597167969	-875.6430053710938	44.3054313659668	-132.0435180664062	-1026.20166015625	173.3906860351562	-173.5913696289062	-623.7359619140625	470.0980529785156	343.6301574707031	-721.158447265625	713.443115234375	350.5793151855469	-621.593505859375	37.36100387573242	343.8708190917969	-600.2054443359375	326.0010986328125	361.0091857910156	-398.9843444824219	44.66507339477539	379.37353515625	-447.4427185058594	53.01435470581055	324.823486328125	-507.29931640625	41.78725051879883	417.4390258789062	-663.7591552734375	31.67977523803711	276.6392822265625	
206	2.05	-847.1176147460938	922.446533203125	128.9072875976562	-778.4037475585938	928.8345947265625	3.54651665687561	-804.0873413085938	1025.956787109375	77.97431945800781	-562.248779296875	1221.32470703125	206.6430816650391	-813.2890625	1149.607421875	64.93994140625	-762.5068359375	1419.802490234375	112.9374160766602	-594.1297607421875	1333.830688476562	187.5970306396484	-862.0426635742188	1297.428955078125	159.5485992431641	-744.0382690429688	1374.212158203125	8.45460319519043	-616.1531982421875	1394.303955078125	-11.56746482849121	-582.05322265625	1277.378173828125	-105.4264984130859	-557.5386962890625	1063.506591796875	-137.2489013671875	-657.1226196289062	1051.59033203125	-109.9806060791016	-518.5625610351562	849.7271728515625	-83.75823211669922	-536.9778442382812	844.6798706054688	-155.5620574951172	-540.37060546875	974.93310546875	-145.6550750732422	-530.693359375	688.6865844726562	-107.0974807739258	-536.1661987304688	766.47216796875	-160.5454254150391	-508.1961669921875	762.2327270507812	-94.01981353759766	-781.778564453125	1382.995849609375	283.3083190917969	-838.8220825195312	1323.333618164062	335.1973876953125	-899.6918334960938	1043.38525390625	373.2730102539062	-920.1484985351562	1033.73193359375	308.4911804199219	-823.8565063476562	820.3284301757812	376.02880859375	-912.6439819335938	820.6723022460938	390.5201721191406	-911.2932739257812	985.995361328125	380.2716369628906	-856.6116333007812	666.7354125976562	366.3984985351562	-835.5989990234375	721.5089111328125	382.63720703125	-913.4971313476562	731.0538330078125	386.8860473632812	-682.3040161132812	1621.161010742188	245.4930725097656	-528.4371337890625	1616.338134765625	106.8658752441406	-544.990478515625	1621.25	236.5902557373047	-676.2807006835938	1620.802001953125	67.77737426757812	-607.2074584960938	828.01171875	-43.11105728149414	-786.71728515625	831.711669921875	314.9088134765625	-674.9142456054688	886.8972778320312	296.8694458007812	-552.7003173828125	864.5596923828125	72.71656799316406	-668.881591796875	412.6842651367188	-45.18838119506836	-610.2863159179688	561.4996948242188	-26.79721832275391	-962.6954345703125	134.7411956787109	-202.3748931884766	-758.4533081054688	296.7003784179688	-111.5939483642578	-877.2188720703125	40.91536712646484	-18.09841728210449	-932.8280639648438	66.86225891113281	-40.79645919799805	-873.662109375	44.47086334228516	-130.7767486572266	-1014.01513671875	184.274169921875	-167.5959014892578	-616.927978515625	470.2277526855469	348.0510864257812	-712.230712890625	714.459716796875	356.9072875976562	-621.3829345703125	37.61676788330078	343.8211669921875	-595.5140991210938	325.4165954589844	363.8030395507812	-398.6796569824219	44.23870086669922	378.9618835449219	-447.2385559082031	52.80586624145508	324.7080383300781	-507.21728515625	42.00490951538086	417.47802734375	-663.6326904296875	31.81389617919922	276.6923217773438	
207	2.06	-839.3428344726562	923.5077514648438	136.1788940429688	-771.1143798828125	928.804443359375	10.35023403167725	-796.7172241210938	1027.32568359375	85.27109527587891	-554.9157104492188	1223.005126953125	212.6596374511719	-806.0186157226562	1150.886108398438	72.21175384521484	-755.4359130859375	1421.124145507812	119.6479263305664	-586.789306640625	1335.458618164062	193.6668395996094	-854.5735473632812	1298.697998046875	167.0195007324219	-737.3198852539062	1375.544921875	15.25535011291504	-609.483642578125	1395.987060546875	-5.273839473724365	-575.8860473632812	1279.314086914062	-99.49062347412109	-553.4098510742188	1065.361206054688	-132.0150451660156	-652.7249145507812	1054.118041992188	-103.3656616210938	-516.30859375	850.2593994140625	-81.203125	-535.7029418945312	846.3363037109375	-152.8447723388672	-537.3579711914062	976.7128295898438	-141.4843292236328	-532.3099365234375	689.5536499023438	-106.1489639282227	-536.76904296875	768.0333251953125	-158.6450653076172	-507.9770812988281	762.4656372070312	-92.47293853759766	-773.867919921875	1384.673461914062	290.1723022460938	-830.5479736328125	1325.106201171875	342.4798583984375	-890.6428833007812	1044.975219726562	381.3614501953125	-911.4744873046875	1035.125244140625	316.7259826660156	-813.5659790039062	822.2301025390625	383.9831848144531	-902.381591796875	822.1481323242188	399.0578918457031	-901.8955688476562	987.5377807617188	388.4949035644531	-845.9678955078125	668.4205322265625	374.2494201660156	-825.0078125	723.2711791992188	390.4488220214844	-902.8665771484375	732.5182495117188	395.2122802734375	-674.5662231445312	1622.451293945312	252.0903015136719	-521.5864868164062	1617.749633789062	112.5070190429688	-537.3071899414062	1622.534301757812	242.3228607177734	-669.6401977539062	1622.309448242188	74.30046844482422	-599.3938598632812	827.9756469726562	-35.93068313598633	-778.3575439453125	832.7974853515625	322.0336303710938	-666.606689453125	887.8717651367188	303.6433410644531	-544.971435546875	865.9814453125	79.34018707275391	-651.5027465820312	411.9217834472656	-37.147216796875	-595.5181274414062	561.326171875	-18.82406234741211	-952.7548828125	143.5721130371094	-197.7109069824219	-743.9173583984375	299.0816955566406	-105.5132751464844	-875.6168823242188	39.90580749511719	-17.52186965942383	-927.92724609375	69.55277252197266	-38.42317962646484	-871.1631469726562	45.06401443481445	-129.0664215087891	-1000.523559570312	195.2939453125	-161.0049591064453	-611.0164794921875	469.9705200195312	352.0997924804688	-703.9447631835938	715.0880737304688	363.0356140136719	-621.2189331054688	37.80110168457031	343.7404479980469	-591.488037109375	324.68115234375	366.3702697753906	-398.4853820800781	44.13040924072266	378.7180786132812	-447.1083984375	52.74601745605469	324.64599609375	-507.1819152832031	42.17871475219727	417.5185546875	-663.5205688476562	31.91142845153809	276.6744995117188	
208	2.07	-831.7818603515625	924.6021118164062	143.4140167236328	-764.2273559570312	928.5802001953125	17.03940582275391	-789.5869140625	1028.649658203125	92.55112457275391	-547.615234375	1224.541015625	218.4506225585938	-798.8295288085938	1152.139770507812	79.52544403076172	-748.4129028320312	1422.41748046875	126.2412719726562	-579.4970092773438	1336.966796875	199.5509033203125	-847.1557006835938	1299.9169921875	174.4408416748047	-730.71533203125	1376.835571289062	21.93801116943359	-602.9252319335938	1397.572631835938	0.8544319868087769	-569.8038330078125	1281.15185546875	-93.69232940673828	-549.1022338867188	1067.150634765625	-126.9091415405273	-648.23046875	1056.513671875	-97.12274169921875	-513.8116455078125	850.8610229492188	-78.46161651611328	-533.9727172851562	847.9627075195312	-149.9536590576172	-534.0538330078125	978.4619750976562	-137.3031463623047	-533.6222534179688	690.5383911132812	-104.7187576293945	-536.9326782226562	769.5901489257812	-156.4242858886719	-507.4993896484375	762.7937622070312	-90.5601806640625	-765.945556640625	1386.335815429688	296.9091186523438	-822.2792358398438	1326.907836914062	349.6693420410156	-881.6018676757812	1046.601806640625	389.5755004882812	-902.8550415039062	1036.484619140625	325.1275024414062	-802.9986572265625	824.2826538085938	392.1914978027344	-891.8341674804688	823.6603393554688	407.9108581542969	-892.4375610351562	989.1053466796875	396.8965759277344	-834.80810546875	670.2125244140625	382.4876708984375	-813.9874877929688	725.1849365234375	398.5847778320312	-891.7933959960938	734.0089111328125	403.9020690917969	-666.859619140625	1623.714599609375	258.5429382324219	-514.8103637695312	1619.142578125	117.980827331543	-529.66259765625	1623.786254882812	247.8956146240234	-663.0623779296875	1623.77587890625	80.69055938720703	-591.9181518554688	827.8722534179688	-29.00648307800293	-770.19091796875	833.8050537109375	329.0126647949219	-658.3824462890625	888.5641479492188	310.1424560546875	-537.439208984375	867.3281860351562	85.60358428955078	-633.6369018554688	411.2794494628906	-28.80785179138184	-580.5125122070312	561.2144775390625	-10.96491527557373	-941.6810913085938	152.6897583007812	-192.4492950439453	-728.6176147460938	301.4225769042969	-98.84109497070312	-873.2672729492188	38.55270767211914	-16.44651985168457	-921.9786376953125	72.89730072021484	-35.38896942138672	-867.9281616210938	46.24467086791992	-126.8322830200195	-985.8904418945312	206.3088226318359	-153.98046875	-605.93115234375	469.44970703125	355.8312683105469	-696.3267822265625	715.4161987304688	368.9012756347656	-621.0888671875	37.92301177978516	343.6426696777344	-588.0831298828125	323.856689453125	368.7653503417969	-398.3556518554688	44.18229675292969	378.6097106933594	-447.0231323242188	52.76022338867188	324.6253051757812	-507.1803588867188	42.29172134399414	417.5769653320312	-663.4239501953125	31.99517440795898	276.6128540039062	
